<?xml version="1.0" encoding="utf-8"?>
<svg viewBox="0 0 500 500" xmlns="http://www.w3.org/2000/svg">
  <rect x="-416.645" y="-477.197" width="1810" height="1010" fill="#2471A3" transform="matrix(0.9999999999999999, 0, 0, 0.9999999999999999, 0, -5.684341886080802e-14)"/>
  <g transform="matrix(0.9999999999999999, 0, 0, 0.9999999999999999, -808.9244384765625, 989.5855102539062)">
    <path d="M 841.374 -765.73 C 1032.674 -765.73 1123.542 -464.545 1013.742 -247.045 C 903.842 -29.545 593.474 104.37 402.174 175.07 C 210.774 245.77 103.074 279.37 -38.426 313.17 C -180.026 346.97 -355.326 381.07 -397.326 310.37 C -439.326 239.67 -348.026 64.37 -381.026 -144.03 C -414.026 -352.43 -610.022 -332.534 -529.326 -593.73 C -448.63 -854.926 -203.039 -530.151 69.216 -589.732 C 313.37 -643.164 573.828 -777.167 841.374 -765.73" fill="#272727"/>
  </g>
</svg>