<svg id="visual" viewBox="0 0 1200 300" width="1200" height="300" xmlns="http://www.w3.org/2000/svg" xmlns:xlink="http://www.w3.org/1999/xlink" version="1.1"><path d="M0 22L13.3 22.5C26.7 23 53.3 24 80 22C106.7 20 133.3 15 160 15C186.7 15 213.3 20 240 21C266.7 22 293.3 19 320 18C346.7 17 373.3 18 400 19.5C426.7 21 453.3 23 480 22C506.7 21 533.3 17 560 15C586.7 13 613.3 13 640 13.5C666.7 14 693.3 15 720 16.5C746.7 18 773.3 20 800 20C826.7 20 853.3 18 880 16.5C906.7 15 933.3 14 960 15.5C986.7 17 1013.3 21 1040 22C1066.7 23 1093.3 21 1120 20C1146.7 19 1173.3 19 1186.7 19L1200 19L1200 0L1186.7 0C1173.3 0 1146.7 0 1120 0C1093.3 0 1066.7 0 1040 0C1013.3 0 986.7 0 960 0C933.3 0 906.7 0 880 0C853.3 0 826.7 0 800 0C773.3 0 746.7 0 720 0C693.3 0 666.7 0 640 0C613.3 0 586.7 0 560 0C533.3 0 506.7 0 480 0C453.3 0 426.7 0 400 0C373.3 0 346.7 0 320 0C293.3 0 266.7 0 240 0C213.3 0 186.7 0 160 0C133.3 0 106.7 0 80 0C53.3 0 26.7 0 13.3 0L0 0Z" fill="#6198ff"></path><path d="M0 64L13.3 65C26.7 66 53.3 68 80 65C106.7 62 133.3 54 160 51.5C186.7 49 213.3 52 240 52C266.7 52 293.3 49 320 48.5C346.7 48 373.3 50 400 49.5C426.7 49 453.3 46 480 49.5C506.7 53 533.3 63 560 65C586.7 67 613.3 61 640 54.5C666.7 48 693.3 41 720 40.5C746.7 40 773.3 46 800 52.5C826.7 59 853.3 66 880 64.5C906.7 63 933.3 53 960 51.5C986.7 50 1013.3 57 1040 58C1066.7 59 1093.3 54 1120 50C1146.7 46 1173.3 43 1186.7 41.5L1200 40L1200 17L1186.7 17C1173.3 17 1146.7 17 1120 18C1093.3 19 1066.7 21 1040 20C1013.3 19 986.7 15 960 13.5C933.3 12 906.7 13 880 14.5C853.3 16 826.7 18 800 18C773.3 18 746.7 16 720 14.5C693.3 13 666.7 12 640 11.5C613.3 11 586.7 11 560 13C533.3 15 506.7 19 480 20C453.3 21 426.7 19 400 17.5C373.3 16 346.7 15 320 16C293.3 17 266.7 20 240 19C213.3 18 186.7 13 160 13C133.3 13 106.7 18 80 20C53.3 22 26.7 21 13.3 20.5L0 20Z" fill="#4f8cff"></path><path d="M0 139L13.3 133C26.7 127 53.3 115 80 107C106.7 99 133.3 95 160 99.5C186.7 104 213.3 117 240 121C266.7 125 293.3 120 320 123.5C346.7 127 373.3 139 400 138C426.7 137 453.3 123 480 123.5C506.7 124 533.3 139 560 142.5C586.7 146 613.3 138 640 129C666.7 120 693.3 110 720 105C746.7 100 773.3 100 800 103C826.7 106 853.3 112 880 120C906.7 128 933.3 138 960 134.5C986.7 131 1013.3 114 1040 105.5C1066.7 97 1093.3 97 1120 96.5C1146.7 96 1173.3 95 1186.7 94.5L1200 94L1200 38L1186.7 39.5C1173.3 41 1146.7 44 1120 48C1093.3 52 1066.7 57 1040 56C1013.3 55 986.7 48 960 49.5C933.3 51 906.7 61 880 62.5C853.3 64 826.7 57 800 50.5C773.3 44 746.7 38 720 38.5C693.3 39 666.7 46 640 52.5C613.3 59 586.7 65 560 63C533.3 61 506.7 51 480 47.5C453.3 44 426.7 47 400 47.5C373.3 48 346.7 46 320 46.5C293.3 47 266.7 50 240 50C213.3 50 186.7 47 160 49.5C133.3 52 106.7 60 80 63C53.3 66 26.7 64 13.3 63L0 62Z" fill="#3c80ff"></path><path d="M0 157L13.3 154.5C26.7 152 53.3 147 80 143C106.7 139 133.3 136 160 141.5C186.7 147 213.3 161 240 160.5C266.7 160 293.3 145 320 146C346.7 147 373.3 164 400 168C426.7 172 453.3 163 480 165C506.7 167 533.3 180 560 179.5C586.7 179 613.3 165 640 155.5C666.7 146 693.3 141 720 138C746.7 135 773.3 134 800 133.5C826.7 133 853.3 133 880 138.5C906.7 144 933.3 155 960 156.5C986.7 158 1013.3 150 1040 143C1066.7 136 1093.3 130 1120 129C1146.7 128 1173.3 132 1186.7 134L1200 136L1200 92L1186.7 92.5C1173.3 93 1146.7 94 1120 94.5C1093.3 95 1066.7 95 1040 103.5C1013.3 112 986.7 129 960 132.5C933.3 136 906.7 126 880 118C853.3 110 826.7 104 800 101C773.3 98 746.7 98 720 103C693.3 108 666.7 118 640 127C613.3 136 586.7 144 560 140.5C533.3 137 506.7 122 480 121.5C453.3 121 426.7 135 400 136C373.3 137 346.7 125 320 121.5C293.3 118 266.7 123 240 119C213.3 115 186.7 102 160 97.5C133.3 93 106.7 97 80 105C53.3 113 26.7 125 13.3 131L0 137Z" fill="#2573ff"></path><path d="M0 181L13.3 177.5C26.7 174 53.3 167 80 163.5C106.7 160 133.3 160 160 167C186.7 174 213.3 188 240 187C266.7 186 293.3 170 320 170C346.7 170 373.3 186 400 188C426.7 190 453.3 178 480 178C506.7 178 533.3 190 560 190C586.7 190 613.3 178 640 169.5C666.7 161 693.3 156 720 152C746.7 148 773.3 145 800 146C826.7 147 853.3 152 880 160.5C906.7 169 933.3 181 960 181.5C986.7 182 1013.3 171 1040 163.5C1066.7 156 1093.3 152 1120 152.5C1146.7 153 1173.3 158 1186.7 160.5L1200 163L1200 134L1186.7 132C1173.3 130 1146.7 126 1120 127C1093.3 128 1066.7 134 1040 141C1013.3 148 986.7 156 960 154.5C933.3 153 906.7 142 880 136.5C853.3 131 826.7 131 800 131.5C773.3 132 746.7 133 720 136C693.3 139 666.7 144 640 153.5C613.3 163 586.7 177 560 177.5C533.3 178 506.7 165 480 163C453.3 161 426.7 170 400 166C373.3 162 346.7 145 320 144C293.3 143 266.7 158 240 158.5C213.3 159 186.7 145 160 139.5C133.3 134 106.7 137 80 141C53.3 145 26.7 150 13.3 152.5L0 155Z" fill="#0066ff"></path><path d="M0 199L13.3 198C26.7 197 53.3 195 80 195C106.7 195 133.3 197 160 201.5C186.7 206 213.3 213 240 208.5C266.7 204 293.3 188 320 188C346.7 188 373.3 204 400 208C426.7 212 453.3 204 480 206C506.7 208 533.3 220 560 220C586.7 220 613.3 208 640 198C666.7 188 693.3 180 720 174C746.7 168 773.3 164 800 165.5C826.7 167 853.3 174 880 184C906.7 194 933.3 207 960 207C986.7 207 1013.3 194 1040 186C1066.7 178 1093.3 175 1120 174.5C1146.7 174 1173.3 176 1186.7 177L1200 178L1200 161L1186.7 158.5C1173.3 156 1146.7 151 1120 150.5C1093.3 150 1066.7 154 1040 161.5C1013.3 169 986.7 180 960 179.5C933.3 179 906.7 167 880 158.5C853.3 150 826.7 145 800 144C773.3 143 746.7 146 720 150C693.3 154 666.7 159 640 167.5C613.3 176 586.7 188 560 188C533.3 188 506.7 176 480 176C453.3 176 426.7 188 400 186C373.3 184 346.7 168 320 168C293.3 168 266.7 184 240 185C213.3 186 186.7 172 160 165C133.3 158 106.7 158 80 161.5C53.3 165 26.7 172 13.3 175.5L0 179Z" fill="#005fee"></path><path d="M0 274L13.3 269.5C26.7 265 53.3 256 80 254.5C106.7 253 133.3 259 160 263C186.7 267 213.3 269 240 268.5C266.7 268 293.3 265 320 262.5C346.7 260 373.3 258 400 258C426.7 258 453.3 260 480 262.5C506.7 265 533.3 268 560 267C586.7 266 613.3 261 640 258C666.7 255 693.3 254 720 256C746.7 258 773.3 263 800 263C826.7 263 853.3 258 880 259C906.7 260 933.3 267 960 269C986.7 271 1013.3 268 1040 264C1066.7 260 1093.3 255 1120 256.5C1146.7 258 1173.3 266 1186.7 270L1200 274L1200 176L1186.7 175C1173.3 174 1146.7 172 1120 172.5C1093.3 173 1066.7 176 1040 184C1013.3 192 986.7 205 960 205C933.3 205 906.7 192 880 182C853.3 172 826.7 165 800 163.5C773.3 162 746.7 166 720 172C693.3 178 666.7 186 640 196C613.3 206 586.7 218 560 218C533.3 218 506.7 206 480 204C453.3 202 426.7 210 400 206C373.3 202 346.7 186 320 186C293.3 186 266.7 202 240 206.5C213.3 211 186.7 204 160 199.5C133.3 195 106.7 193 80 193C53.3 193 26.7 195 13.3 196L0 197Z" fill="#0059dd"></path><path d="M0 292L13.3 289.5C26.7 287 53.3 282 80 281.5C106.7 281 133.3 285 160 286.5C186.7 288 213.3 287 240 286.5C266.7 286 293.3 286 320 285.5C346.7 285 373.3 284 400 282.5C426.7 281 453.3 279 480 279.5C506.7 280 533.3 283 560 285.5C586.7 288 613.3 290 640 289C666.7 288 693.3 284 720 283.5C746.7 283 773.3 286 800 286C826.7 286 853.3 283 880 283.5C906.7 284 933.3 288 960 287.5C986.7 287 1013.3 282 1040 279.5C1066.7 277 1093.3 277 1120 279C1146.7 281 1173.3 285 1186.7 287L1200 289L1200 272L1186.7 268C1173.3 264 1146.7 256 1120 254.5C1093.3 253 1066.7 258 1040 262C1013.3 266 986.7 269 960 267C933.3 265 906.7 258 880 257C853.3 256 826.7 261 800 261C773.3 261 746.7 256 720 254C693.3 252 666.7 253 640 256C613.3 259 586.7 264 560 265C533.3 266 506.7 263 480 260.5C453.3 258 426.7 256 400 256C373.3 256 346.7 258 320 260.5C293.3 263 266.7 266 240 266.5C213.3 267 186.7 265 160 261C133.3 257 106.7 251 80 252.5C53.3 254 26.7 263 13.3 267.5L0 272Z" fill="#0052cc"></path><path d="M0 301L13.3 301C26.7 301 53.3 301 80 301C106.7 301 133.3 301 160 301C186.7 301 213.3 301 240 301C266.7 301 293.3 301 320 301C346.7 301 373.3 301 400 301C426.7 301 453.3 301 480 301C506.7 301 533.3 301 560 301C586.7 301 613.3 301 640 301C666.7 301 693.3 301 720 301C746.7 301 773.3 301 800 301C826.7 301 853.3 301 880 301C906.7 301 933.3 301 960 301C986.7 301 1013.3 301 1040 301C1066.7 301 1093.3 301 1120 301C1146.7 301 1173.3 301 1186.7 301L1200 301L1200 287L1186.7 285C1173.3 283 1146.7 279 1120 277C1093.3 275 1066.7 275 1040 277.5C1013.3 280 986.7 285 960 285.5C933.3 286 906.7 282 880 281.5C853.3 281 826.7 284 800 284C773.3 284 746.7 281 720 281.5C693.3 282 666.7 286 640 287C613.3 288 586.7 286 560 283.5C533.3 281 506.7 278 480 277.5C453.3 277 426.7 279 400 280.5C373.3 282 346.7 283 320 283.5C293.3 284 266.7 284 240 284.5C213.3 285 186.7 286 160 284.5C133.3 283 106.7 279 80 279.5C53.3 280 26.7 285 13.3 287.5L0 290Z" fill="#004cbb"></path></svg>